<svg width="362px" height="67px" viewBox="0 0 362 67" version="1.1" xmlns="http://www.w3.org/2000/svg" xmlns:xlink="http://www.w3.org/1999/xlink">
    <g id="Symbols" stroke="none" stroke-width="1" fill="none" fill-rule="evenodd">
        <g id="NAV_full" transform="translate(-66.000000, -2.000000)" fill-rule="nonzero">
            <g transform="translate(45.000000, -25.000000)" id="MIT_MCSC_full_logo_RGB">
                <g transform="translate(21.000000, 27.000000)">
                    <polygon id="Path" fill="#000000" points="193.915152 6.44848485 193.915152 6.44848485 193.109091 6.44848485 193.109091 6.44848485 192.993939 6.44848485 192.993939 59.9363636 194.030303 59.9363636 194.030303 6.44848485"/>
                    <g id="Group" transform="translate(202.090909, 5.181818)" fill="#000000">
                        <g>
                            <path d="M0.518181818,15.2 L0.518181818,1.26666667 L3.33939394,1.26666667 L4.72121212,5.7 C4.83636364,6.16060606 4.95151515,6.56363636 5.06666667,6.90909091 C5.12424242,7.25454545 5.18181818,7.54242424 5.23939394,7.71515152 C5.23939394,7.54242424 5.2969697,7.25454545 5.41212121,6.90909091 C5.46969697,6.56363636 5.58484848,6.16060606 5.75757576,5.7 L7.02424242,1.26666667 L9.84545455,1.26666667 L9.84545455,15.1424242 L7.6,15.1424242 L7.6,10.8242424 C7.6,10.1909091 7.6,9.5 7.65757576,8.75151515 C7.71515152,8.0030303 7.71515152,7.25454545 7.77272727,6.50606061 C7.83030303,5.75757576 7.88787879,5.06666667 7.94545455,4.37575758 C8.0030303,3.68484848 8.06060606,3.10909091 8.11818182,2.59090909 L6.27575758,9.21212121 L4.08787879,9.21212121 L2.18787879,2.64848485 C2.24545455,3.10909091 2.3030303,3.68484848 2.36060606,4.37575758 C2.41818182,5.00909091 2.47575758,5.75757576 2.53333333,6.44848485 C2.59090909,7.1969697 2.64848485,7.94545455 2.64848485,8.69393939 C2.64848485,9.44242424 2.70606061,10.1909091 2.70606061,10.8818182 L2.70606061,15.2 L0.518181818,15.2 L0.518181818,15.2 Z" id="Path"/>
                            <polygon id="Path" points="12.5515152 15.2 12.5515152 13.1272727 15.3727273 13.1272727 15.3727273 3.3969697 12.5515152 3.3969697 12.5515152 1.32424242 20.5545455 1.32424242 20.5545455 3.3969697 17.7333333 3.3969697 17.7333333 13.1272727 20.5545455 13.1272727 20.5545455 15.2"/>
                            <polygon id="Path" points="26.7727273 15.2 26.7727273 3.51212121 23.1454545 3.51212121 23.1454545 1.32424242 32.8181818 1.32424242 32.8181818 3.51212121 29.1909091 3.51212121 29.1909091 15.2"/>
                            <path d="M50.8969697,15.3727273 C50.0333333,15.3727273 49.2272727,15.2 48.5939394,14.8545455 C47.9030303,14.5090909 47.4424242,14.0484848 47.0393939,13.4151515 C46.6363636,12.7818182 46.5212121,12.0909091 46.5212121,11.2272727 L46.5212121,5.18181818 C46.5212121,4.31818182 46.6939394,3.62727273 47.0393939,2.99393939 C47.3848485,2.36060606 47.9030303,1.9 48.5939394,1.55454545 C49.2848485,1.20909091 50.0333333,1.03636364 50.8969697,1.03636364 C51.7606061,1.03636364 52.5666667,1.20909091 53.2,1.55454545 C53.8333333,1.9 54.3515152,2.36060606 54.7545455,2.99393939 C55.1,3.62727273 55.330303,4.31818182 55.330303,5.18181818 L52.9121212,5.18181818 C52.9121212,4.54848485 52.7393939,4.03030303 52.3939394,3.68484848 C52.0484848,3.33939394 51.530303,3.16666667 50.8969697,3.16666667 C50.2636364,3.16666667 49.7454545,3.33939394 49.4,3.68484848 C49.0545455,4.03030303 48.8818182,4.49090909 48.8818182,5.18181818 L48.8818182,11.2272727 C48.8818182,11.8606061 49.0545455,12.3787879 49.4,12.7242424 C49.7454545,13.069697 50.2636364,13.2424242 50.8969697,13.2424242 C51.530303,13.2424242 52.0484848,13.069697 52.3939394,12.7242424 C52.7393939,12.3787879 52.9121212,11.8606061 52.9121212,11.2272727 L55.330303,11.2272727 C55.330303,12.0333333 55.1575758,12.7818182 54.7545455,13.4151515 C54.4090909,14.0484848 53.8909091,14.5090909 53.2,14.8545455 C52.5666667,15.2 51.8181818,15.3727273 50.8969697,15.3727273 L50.8969697,15.3727273 Z" id="Path"/>
                            <path d="M63.8515152,15.2 C63.1606061,15.2 62.5848485,15.0848485 62.0666667,14.7969697 C61.5484848,14.5090909 61.1454545,14.1060606 60.8575758,13.5878788 C60.569697,13.069697 60.3969697,12.4939394 60.3969697,11.8030303 L60.3969697,3.45454545 L57.0575758,3.45454545 L57.0575758,1.32424242 L62.8151515,1.32424242 L62.8151515,11.8606061 C62.8151515,12.2636364 62.930303,12.5515152 63.1606061,12.7818182 C63.3909091,13.0121212 63.6787879,13.1272727 64.0818182,13.1272727 L67.2484848,13.1272727 L67.2484848,15.2575758 L63.8515152,15.2 L63.8515152,15.2 Z" id="Path"/>
                            <path d="M69.3787879,15.2 L69.3787879,13.0121212 L73.0636364,13.0121212 L73.0636364,6.85151515 L69.8969697,6.85151515 L69.8969697,4.72121212 L75.3666667,4.72121212 L75.3666667,13.0121212 L78.5909091,13.0121212 L78.5909091,15.2 L69.3787879,15.2 Z M73.9848485,2.99393939 C73.5242424,2.99393939 73.1212121,2.87878788 72.8333333,2.64848485 C72.5454545,2.41818182 72.430303,2.07272727 72.430303,1.66969697 C72.430303,1.26666667 72.5454545,0.921212121 72.8333333,0.690909091 C73.1212121,0.460606061 73.4666667,0.345454545 73.9848485,0.345454545 C74.5030303,0.345454545 74.8484848,0.460606061 75.1363636,0.690909091 C75.4242424,0.921212121 75.5393939,1.26666667 75.5393939,1.66969697 C75.5393939,2.07272727 75.4242424,2.41818182 75.1363636,2.64848485 C74.8484848,2.82121212 74.5030303,2.99393939 73.9848485,2.99393939 Z" id="Shape"/>
                            <path d="M80.3757576,15.2 L80.3757576,4.72121212 L82.3333333,4.72121212 L82.3333333,6.16060606 L82.7363636,6.16060606 L82.3909091,6.50606061 C82.3909091,5.93030303 82.5636364,5.46969697 82.9090909,5.06666667 C83.2545455,4.72121212 83.6575758,4.54848485 84.1757576,4.54848485 C84.7515152,4.54848485 85.1545455,4.77878788 85.5,5.23939394 C85.8454545,5.7 85.9606061,6.33333333 85.9606061,7.08181818 L85.5575758,6.16060606 L86.1909091,6.16060606 L85.9606061,6.50606061 C85.9606061,5.93030303 86.1333333,5.46969697 86.4787879,5.06666667 C86.8242424,4.66363636 87.2272727,4.54848485 87.8030303,4.54848485 C88.4363636,4.54848485 88.9545455,4.77878788 89.3575758,5.2969697 C89.7606061,5.81515152 89.9333333,6.44848485 89.9333333,7.25454545 L89.9333333,15.2575758 L87.8606061,15.2575758 L87.8606061,7.31212121 C87.8606061,6.96666667 87.8030303,6.67878788 87.630303,6.50606061 C87.4575758,6.33333333 87.2848485,6.21818182 86.9393939,6.21818182 C86.5939394,6.21818182 86.4212121,6.33333333 86.3060606,6.50606061 C86.1333333,6.67878788 86.0757576,6.96666667 86.0757576,7.31212121 L86.0757576,15.2 L84.3484848,15.2 L84.3484848,7.31212121 C84.3484848,6.96666667 84.2909091,6.67878788 84.1181818,6.50606061 C83.9454545,6.33333333 83.7727273,6.21818182 83.4272727,6.21818182 C83.0818182,6.21818182 82.9090909,6.33333333 82.7939394,6.50606061 C82.6787879,6.67878788 82.5636364,6.96666667 82.5636364,7.31212121 L82.5636364,15.2 L80.3757576,15.2 L80.3757576,15.2 Z" id="Path"/>
                            <path d="M95.3454545,15.3727273 C94.2515152,15.3727273 93.4454545,15.0848485 92.8121212,14.5090909 C92.1787879,13.9333333 91.8909091,13.1848485 91.8909091,12.2060606 C91.8909091,11.169697 92.2363636,10.3636364 92.9272727,9.84545455 C93.6181818,9.26969697 94.5969697,8.98181818 95.8636364,8.98181818 L98.4545455,8.98181818 L98.4545455,8.11818182 C98.4545455,7.6 98.2818182,7.1969697 97.9363636,6.90909091 C97.5909091,6.62121212 97.130303,6.50606061 96.6121212,6.50606061 C96.0939394,6.50606061 95.6333333,6.62121212 95.3454545,6.85151515 C95,7.08181818 94.769697,7.36969697 94.7121212,7.77272727 L92.4090909,7.77272727 C92.5242424,6.79393939 92.9848485,5.98787879 93.7333333,5.41212121 C94.4818182,4.83636364 95.5181818,4.54848485 96.7272727,4.54848485 C97.9939394,4.54848485 99.030303,4.89393939 99.7787879,5.52727273 C100.527273,6.16060606 100.872727,7.02424242 100.872727,8.11818182 L100.872727,15.2 L98.569697,15.2 L98.569697,13.3575758 L98.1666667,13.3575758 L98.569697,12.8393939 C98.569697,13.5878788 98.2818182,14.2212121 97.7060606,14.6818182 C97.0727273,15.1424242 96.3242424,15.3727273 95.3454545,15.3727273 L95.3454545,15.3727273 Z M96.1515152,13.5878788 C96.8424242,13.5878788 97.3606061,13.4151515 97.8212121,13.069697 C98.2818182,12.7242424 98.4545455,12.2636364 98.4545455,11.7454545 L98.4545455,10.4787879 L95.8636364,10.4787879 C95.4030303,10.4787879 95,10.5939394 94.7121212,10.8818182 C94.4242424,11.169697 94.2515152,11.5151515 94.2515152,11.9757576 C94.2515152,12.4939394 94.4242424,12.8393939 94.769697,13.1272727 C95.1151515,13.4151515 95.5757576,13.5878788 96.1515152,13.5878788 L96.1515152,13.5878788 Z" id="Shape"/>
                            <path d="M109.106061,15.2 C108.127273,15.2 107.321212,14.9121212 106.745455,14.3363636 C106.169697,13.7606061 105.881818,13.0121212 105.881818,12.0333333 L105.881818,6.85151515 L103.060606,6.85151515 L103.060606,4.72121212 L105.881818,4.72121212 L105.881818,1.78484848 L108.3,1.78484848 L108.3,4.72121212 L112.330303,4.72121212 L112.330303,6.85151515 L108.3,6.85151515 L108.3,12.0333333 C108.3,12.6666667 108.645455,13.0121212 109.278788,13.0121212 L112.157576,13.0121212 L112.157576,15.1424242 L109.106061,15.1424242 L109.106061,15.2 Z" id="Path"/>
                            <path d="M119.354545,15.3727273 C118.490909,15.3727273 117.684848,15.2 117.051515,14.8545455 C116.360606,14.5090909 115.9,14.0484848 115.49697,13.4151515 C115.151515,12.7818182 114.978788,12.0909091 114.978788,11.2272727 L114.978788,8.63636364 C114.978788,7.83030303 115.151515,7.08181818 115.49697,6.44848485 C115.842424,5.81515152 116.360606,5.35454545 117.051515,5.00909091 C117.742424,4.66363636 118.490909,4.49090909 119.354545,4.49090909 C120.218182,4.49090909 120.966667,4.66363636 121.657576,5.00909091 C122.290909,5.35454545 122.809091,5.81515152 123.212121,6.44848485 C123.615152,7.08181818 123.730303,7.77272727 123.730303,8.63636364 L123.730303,10.5363636 L117.281818,10.5363636 L117.281818,11.2848485 C117.281818,12.0333333 117.454545,12.5515152 117.8,12.9545455 C118.145455,13.3575758 118.663636,13.530303 119.412121,13.530303 C119.930303,13.530303 120.390909,13.4151515 120.678788,13.2424242 C121.024242,13.069697 121.19697,12.7818182 121.312121,12.4363636 L123.672727,12.4363636 C123.5,13.3575758 123.039394,14.0484848 122.233333,14.6242424 C121.427273,15.2 120.506061,15.3727273 119.354545,15.3727273 L119.354545,15.3727273 Z M121.427273,9.21212121 L121.427273,8.63636364 C121.427273,7.88787879 121.254545,7.36969697 120.909091,6.96666667 C120.563636,6.56363636 120.045455,6.39090909 119.354545,6.39090909 C118.663636,6.39090909 118.145455,6.56363636 117.8,6.96666667 C117.454545,7.36969697 117.281818,7.88787879 117.281818,8.63636364 L117.281818,9.03939394 L121.6,8.98181818 L121.427273,9.21212121 L121.427273,9.21212121 Z" id="Shape"/>
                            <path d="M140.945455,15.3727273 C139.793939,15.3727273 138.930303,15.0848485 138.29697,14.3939394 C137.663636,13.7606061 137.318182,12.8969697 137.318182,11.7454545 L137.318182,9.96060606 C137.318182,9.0969697 137.548485,8.40606061 137.951515,7.88787879 C138.354545,7.31212121 138.987879,7.02424242 139.793939,6.85151515 L139.563636,7.36969697 C139.160606,6.79393939 138.872727,6.27575758 138.642424,5.75757576 C138.412121,5.23939394 138.354545,4.72121212 138.354545,4.2030303 C138.354545,3.56969697 138.527273,2.99393939 138.815152,2.53333333 C139.10303,2.07272727 139.563636,1.66969697 140.081818,1.43939394 C140.657576,1.15151515 141.290909,1.03636364 141.981818,1.03636364 C142.672727,1.03636364 143.421212,1.15151515 143.99697,1.4969697 C144.572727,1.78484848 144.975758,2.18787879 145.321212,2.70606061 C145.609091,3.22424242 145.781818,3.8 145.781818,4.54848485 L143.593939,4.54848485 C143.593939,4.26060606 143.536364,3.97272727 143.421212,3.74242424 C143.306061,3.51212121 143.133333,3.33939394 142.90303,3.22424242 C142.672727,3.10909091 142.384848,3.05151515 142.09697,3.05151515 C141.809091,3.05151515 141.521212,3.10909091 141.290909,3.22424242 C141.060606,3.33939394 140.887879,3.51212121 140.772727,3.74242424 C140.657576,3.97272727 140.6,4.2030303 140.6,4.49090909 C140.6,4.77878788 140.657576,5.12424242 140.830303,5.52727273 C141.00303,5.87272727 141.233333,6.27575758 141.463636,6.67878788 L144.112121,10.4212121 L145.148485,8.40606061 L147.451515,8.40606061 L145.436364,12.2636364 L147.566667,15.2575758 L145.206061,15.2575758 L144.342424,13.9909091 C143.248485,14.9121212 142.212121,15.3727273 140.945455,15.3727273 Z M141.118182,13.4151515 C141.463636,13.4151515 141.809091,13.3 142.154545,13.1272727 C142.5,12.9545455 142.730303,12.6666667 142.960606,12.2636364 L140.369697,8.57878788 C140.081818,8.69393939 139.909091,8.86666667 139.793939,9.0969697 C139.678788,9.32727273 139.621212,9.61515152 139.621212,10.0181818 L139.621212,11.8030303 C139.621212,12.3212121 139.736364,12.7242424 140.024242,13.0121212 C140.254545,13.3 140.657576,13.4151515 141.118182,13.4151515 L141.118182,13.4151515 Z" id="Shape"/>
                        </g>
                        <g transform="translate(0.000000, 19.575758)">
                            <path d="M5.18181818,15.4878788 C4.26060606,15.4878788 3.3969697,15.3151515 2.70606061,15.0272727 C2.01515152,14.7393939 1.4969697,14.2787879 1.09393939,13.6454545 C0.748484848,13.069697 0.518181818,12.3787879 0.518181818,11.5727273 L2.87878788,11.5727273 C2.87878788,12.1484848 3.10909091,12.6090909 3.51212121,12.8969697 C3.91515152,13.2424242 4.49090909,13.3575758 5.18181818,13.3575758 C5.87272727,13.3575758 6.39090909,13.1848485 6.79393939,12.8969697 C7.1969697,12.6090909 7.36969697,12.1484848 7.36969697,11.5727273 C7.36969697,11.1121212 7.25454545,10.7090909 6.96666667,10.3636364 C6.67878788,10.0181818 6.33333333,9.78787879 5.81515152,9.67272727 L4.2030303,9.21212121 C3.10909091,8.92424242 2.24545455,8.40606061 1.66969697,7.71515152 C1.09393939,6.96666667 0.806060606,6.1030303 0.806060606,5.06666667 C0.806060606,4.26060606 0.978787879,3.56969697 1.32424242,2.99393939 C1.66969697,2.41818182 2.18787879,1.95757576 2.82121212,1.66969697 C3.45454545,1.38181818 4.26060606,1.20909091 5.12424242,1.20909091 C6.44848485,1.20909091 7.54242424,1.55454545 8.29090909,2.24545455 C9.0969697,2.93636364 9.5,3.85757576 9.5,5.00909091 L7.13939394,5.00909091 C7.13939394,4.43333333 6.96666667,4.03030303 6.62121212,3.74242424 C6.27575758,3.45454545 5.75757576,3.28181818 5.12424242,3.28181818 C4.49090909,3.28181818 4.03030303,3.3969697 3.68484848,3.74242424 C3.33939394,4.08787879 3.16666667,4.43333333 3.16666667,5.00909091 C3.16666667,5.46969697 3.28181818,5.87272727 3.56969697,6.21818182 C3.85757576,6.56363636 4.2030303,6.79393939 4.72121212,6.90909091 L6.39090909,7.36969697 C7.48484848,7.65757576 8.34848485,8.11818182 8.92424242,8.86666667 C9.5,9.61515152 9.78787879,10.4787879 9.78787879,11.5151515 C9.78787879,12.3212121 9.61515152,13.0121212 9.21212121,13.5878788 C8.80909091,14.1636364 8.29090909,14.6818182 7.6,14.969697 C6.90909091,15.2575758 6.1030303,15.4878788 5.18181818,15.4878788 L5.18181818,15.4878788 Z" id="Path"/>
                            <path d="M16.5818182,15.4878788 C15.2575758,15.4878788 14.2212121,15.0848485 13.4151515,14.3939394 C12.6090909,13.7030303 12.2636364,12.6090909 12.2636364,11.3424242 L12.2636364,4.83636364 L14.6242424,4.83636364 L14.6242424,11.3424242 C14.6242424,12.0333333 14.7969697,12.5515152 15.1424242,12.8969697 C15.4878788,13.2424242 15.9484848,13.4151515 16.5818182,13.4151515 C17.2151515,13.4151515 17.6757576,13.2424242 17.9636364,12.8969697 C18.3090909,12.5515152 18.4818182,12.0333333 18.4818182,11.3424242 L18.4818182,4.83636364 L20.8424242,4.83636364 L20.8424242,11.3424242 C20.8424242,12.6090909 20.4393939,13.6454545 19.6909091,14.3939394 C18.9424242,15.1424242 17.9060606,15.4878788 16.5818182,15.4878788 Z" id="Path"/>
                            <path d="M27.5787879,15.4878788 C26.7727273,15.4878788 26.0818182,15.3727273 25.5060606,15.0848485 C24.930303,14.7969697 24.4121212,14.4515152 24.1242424,14.0484848 C23.8363636,13.6454545 23.6060606,13.069697 23.6060606,12.4363636 L25.9666667,12.4363636 C25.9666667,12.7818182 26.1393939,13.0121212 26.4272727,13.2424242 C26.7151515,13.4727273 27.1181818,13.530303 27.5787879,13.530303 L28.4424242,13.530303 C29.0181818,13.530303 29.4787879,13.4151515 29.7666667,13.1848485 C30.0545455,12.9545455 30.2272727,12.6666667 30.2272727,12.2636364 C30.2272727,11.9181818 30.1121212,11.630303 29.8242424,11.4 C29.5363636,11.169697 29.1909091,11.0545455 28.6151515,10.9969697 L27.3484848,10.8242424 C26.1393939,10.6515152 25.2757576,10.3636364 24.7,9.84545455 C24.1242424,9.38484848 23.8363636,8.69393939 23.8363636,7.71515152 C23.8363636,6.73636364 24.1818182,5.98787879 24.8151515,5.41212121 C25.4484848,4.89393939 26.4272727,4.60606061 27.7515152,4.60606061 L28.5,4.60606061 C29.6515152,4.60606061 30.5727273,4.89393939 31.3212121,5.41212121 C32.0121212,5.93030303 32.4151515,6.62121212 32.4727273,7.48484848 L30.1121212,7.48484848 C30.0545455,7.1969697 29.9393939,6.96666667 29.6515152,6.79393939 C29.3636364,6.62121212 29.0181818,6.50606061 28.5575758,6.50606061 L27.8090909,6.50606061 C27.2333333,6.50606061 26.8878788,6.62121212 26.6,6.79393939 C26.3121212,6.96666667 26.2545455,7.25454545 26.2545455,7.65757576 C26.2545455,8.0030303 26.369697,8.29090909 26.6,8.46363636 C26.830303,8.63636364 27.1757576,8.75151515 27.6363636,8.80909091 L29.0181818,8.98181818 C30.2848485,9.15454545 31.2060606,9.5 31.7818182,9.96060606 C32.3575758,10.4212121 32.6454545,11.169697 32.6454545,12.1484848 C32.6454545,13.1848485 32.3,13.9333333 31.6090909,14.5090909 C30.9181818,15.0848485 29.8818182,15.3727273 28.5575758,15.3727273 L27.5787879,15.4878788 L27.5787879,15.4878788 Z" id="Path"/>
                            <path d="M40.5333333,15.3151515 C39.5545455,15.3151515 38.7484848,15.0272727 38.1727273,14.4515152 C37.5969697,13.8757576 37.3090909,13.1272727 37.3090909,12.1484848 L37.3090909,6.96666667 L34.5454545,6.96666667 L34.5454545,4.83636364 L37.3666667,4.83636364 L37.3666667,1.9 L39.7848485,1.9 L39.7848485,4.83636364 L43.8151515,4.83636364 L43.8151515,6.96666667 L39.7848485,6.96666667 L39.7848485,12.1484848 C39.7848485,12.8393939 40.130303,13.1272727 40.7636364,13.1272727 L43.6424242,13.1272727 L43.6424242,15.2575758 L40.5333333,15.2575758 L40.5333333,15.3151515 Z" id="Path"/>
                            <path d="M49.6878788,15.4878788 C48.5939394,15.4878788 47.730303,15.2 47.1545455,14.6242424 C46.5787879,14.0484848 46.2333333,13.3 46.2333333,12.3212121 C46.2333333,11.2848485 46.5787879,10.4787879 47.269697,9.96060606 C47.9606061,9.38484848 48.9393939,9.0969697 50.2060606,9.0969697 L52.7969697,9.0969697 L52.7969697,8.23333333 C52.7969697,7.71515152 52.6242424,7.31212121 52.2787879,7.02424242 C51.9333333,6.73636364 51.4727273,6.62121212 50.8969697,6.62121212 C50.3787879,6.62121212 49.9757576,6.73636364 49.630303,6.96666667 C49.2848485,7.1969697 49.0545455,7.48484848 48.9969697,7.88787879 L46.6939394,7.88787879 C46.8090909,6.90909091 47.269697,6.1030303 48.0181818,5.52727273 C48.7666667,4.95151515 49.8030303,4.66363636 51.0121212,4.66363636 C52.2787879,4.66363636 53.3151515,5.00909091 54.0636364,5.64242424 C54.8121212,6.27575758 55.1575758,7.13939394 55.1575758,8.23333333 L55.1575758,15.3151515 L52.8545455,15.3151515 L52.8545455,13.4727273 L52.4515152,13.4727273 L52.8545455,12.9545455 C52.8545455,13.7030303 52.5666667,14.3363636 51.9909091,14.7969697 C51.3575758,15.3151515 50.6090909,15.5454545 49.6878788,15.4878788 L49.6878788,15.4878788 Z M50.4363636,13.7030303 C51.1272727,13.7030303 51.6454545,13.530303 52.1060606,13.1848485 C52.5666667,12.8393939 52.7393939,12.3787879 52.7393939,11.8606061 L52.7393939,10.5939394 L50.1484848,10.5939394 C49.6878788,10.5939394 49.2848485,10.7090909 48.9969697,10.9969697 C48.7090909,11.2848485 48.5363636,11.630303 48.5363636,12.0909091 C48.5363636,12.6090909 48.7090909,12.9545455 49.0545455,13.2424242 C49.4,13.5878788 49.8606061,13.7030303 50.4363636,13.7030303 L50.4363636,13.7030303 Z" id="Shape"/>
                            <path d="M57.9787879,15.3151515 L57.9787879,13.1272727 L61.6636364,13.1272727 L61.6636364,7.02424242 L58.4969697,7.02424242 L58.4969697,4.89393939 L63.9666667,4.89393939 L63.9666667,13.1848485 L67.1909091,13.1848485 L67.1909091,15.3727273 L57.9787879,15.3727273 L57.9787879,15.3151515 Z M62.5848485,3.10909091 C62.1242424,3.10909091 61.7212121,2.99393939 61.4333333,2.76363636 C61.1454545,2.53333333 61.030303,2.18787879 61.030303,1.78484848 C61.030303,1.38181818 61.1454545,1.03636364 61.4333333,0.806060606 C61.7212121,0.575757576 62.0666667,0.460606061 62.5848485,0.460606061 C63.1030303,0.460606061 63.4484848,0.575757576 63.7363636,0.806060606 C64.0242424,1.03636364 64.1393939,1.38181818 64.1393939,1.78484848 C64.1393939,2.18787879 64.0242424,2.53333333 63.7363636,2.76363636 C63.4484848,2.99393939 63.1030303,3.10909091 62.5848485,3.10909091 Z" id="Shape"/>
                            <path d="M69.4363636,15.3151515 L69.4363636,4.83636364 L71.7393939,4.83636364 L71.7393939,6.85151515 L72.3727273,6.85151515 L71.7393939,7.42727273 C71.7393939,6.56363636 71.969697,5.87272727 72.4878788,5.41212121 C73.0060606,4.95151515 73.6969697,4.66363636 74.5606061,4.66363636 C75.5969697,4.66363636 76.4030303,5.00909091 77.0363636,5.7 C77.669697,6.39090909 77.9575758,7.31212121 77.9575758,8.46363636 L77.9575758,15.3151515 L75.5969697,15.3151515 L75.5969697,8.69393939 C75.5969697,8.06060606 75.4242424,7.54242424 75.0787879,7.25454545 C74.7333333,6.90909091 74.2727273,6.73636364 73.6969697,6.73636364 C73.1212121,6.73636364 72.6606061,6.90909091 72.3151515,7.25454545 C71.969697,7.6 71.7969697,8.11818182 71.7969697,8.80909091 L71.7969697,15.3727273 L69.4363636,15.3151515 L69.4363636,15.3151515 Z" id="Path"/>
                            <path d="M83.9454545,15.4878788 C82.8515152,15.4878788 81.9878788,15.2 81.4121212,14.6242424 C80.8363636,14.0484848 80.4909091,13.3 80.4909091,12.3212121 C80.4909091,11.2848485 80.8363636,10.4787879 81.5272727,9.96060606 C82.2181818,9.38484848 83.1969697,9.0969697 84.4636364,9.0969697 L87.0545455,9.0969697 L87.0545455,8.23333333 C87.0545455,7.71515152 86.8818182,7.31212121 86.5363636,7.02424242 C86.1909091,6.73636364 85.730303,6.62121212 85.1545455,6.62121212 C84.6363636,6.62121212 84.2333333,6.73636364 83.8878788,6.96666667 C83.5424242,7.1969697 83.3121212,7.48484848 83.2545455,7.88787879 L80.9515152,7.88787879 C81.0666667,6.90909091 81.5272727,6.1030303 82.2757576,5.52727273 C83.0242424,4.95151515 84.0606061,4.66363636 85.269697,4.66363636 C86.5363636,4.66363636 87.5727273,5.00909091 88.3212121,5.64242424 C89.069697,6.27575758 89.4151515,7.13939394 89.4151515,8.23333333 L89.4151515,15.3151515 L87.1121212,15.3151515 L87.1121212,13.4727273 L86.7090909,13.4727273 L87.1121212,12.9545455 C87.1121212,13.7030303 86.8242424,14.3363636 86.2484848,14.7969697 C85.6727273,15.3151515 84.8666667,15.5454545 83.9454545,15.4878788 L83.9454545,15.4878788 Z M84.6939394,13.7030303 C85.3848485,13.7030303 85.9030303,13.530303 86.3636364,13.1848485 C86.8242424,12.8393939 86.9969697,12.3787879 86.9969697,11.8606061 L86.9969697,10.5939394 L84.4060606,10.5939394 C83.9454545,10.5939394 83.5424242,10.7090909 83.2545455,10.9969697 C82.9666667,11.2848485 82.7939394,11.630303 82.7939394,12.0909091 C82.7939394,12.6090909 82.9666667,12.9545455 83.3121212,13.2424242 C83.6575758,13.530303 84.1181818,13.7030303 84.6939394,13.7030303 L84.6939394,13.7030303 Z" id="Shape"/>
                            <path d="M97.4181818,15.4878788 C96.5545455,15.4878788 95.8636364,15.2575758 95.3454545,14.7393939 C94.8272727,14.2212121 94.5969697,13.5878788 94.5969697,12.7242424 L95.1151515,13.3 L94.5969697,13.3 L94.5969697,15.3151515 L92.2939394,15.3151515 L92.2939394,1.43939394 L94.6545455,1.43939394 L94.6545455,4.37575758 L94.5969697,6.85151515 L95.1727273,6.85151515 L94.6545455,7.42727273 C94.6545455,6.56363636 94.8848485,5.93030303 95.4030303,5.41212121 C95.9212121,4.95151515 96.6121212,4.66363636 97.4757576,4.66363636 C98.5121212,4.66363636 99.3757576,5.00909091 100.009091,5.75757576 C100.642424,6.50606061 100.987879,7.48484848 100.987879,8.69393939 L100.987879,11.5151515 C100.987879,12.7242424 100.7,13.7030303 100.009091,14.4515152 C99.3181818,15.1424242 98.4545455,15.4878788 97.4181818,15.4878788 L97.4181818,15.4878788 Z M96.5545455,13.4727273 C97.1878788,13.4727273 97.6484848,13.3 97.9939394,12.9545455 C98.3393939,12.6090909 98.5121212,12.0909091 98.5121212,11.4575758 L98.5121212,8.80909091 C98.5121212,8.11818182 98.3393939,7.65757576 97.9939394,7.25454545 C97.6484848,6.90909091 97.1878788,6.73636364 96.5545455,6.73636364 C95.9212121,6.73636364 95.5181818,6.90909091 95.1151515,7.25454545 C94.7121212,7.6 94.5969697,8.11818182 94.5969697,8.75151515 L94.5969697,11.4 C94.5969697,12.0333333 94.769697,12.5515152 95.1151515,12.8969697 C95.4606061,13.2424242 95.9787879,13.4727273 96.5545455,13.4727273 L96.5545455,13.4727273 Z" id="Shape"/>
                            <path d="M103.693939,15.3151515 L103.693939,13.1272727 L107.321212,13.1272727 L107.321212,7.02424242 L104.154545,7.02424242 L104.154545,4.89393939 L109.624242,4.89393939 L109.624242,13.1848485 L112.848485,13.1848485 L112.848485,15.3727273 L103.693939,15.3727273 L103.693939,15.3151515 Z M108.3,3.10909091 C107.839394,3.10909091 107.436364,2.99393939 107.148485,2.76363636 C106.860606,2.53333333 106.745455,2.18787879 106.745455,1.78484848 C106.745455,1.38181818 106.860606,1.03636364 107.148485,0.806060606 C107.436364,0.575757576 107.839394,0.460606061 108.3,0.460606061 C108.760606,0.460606061 109.163636,0.575757576 109.451515,0.806060606 C109.739394,1.03636364 109.854545,1.38181818 109.854545,1.78484848 C109.854545,2.18787879 109.739394,2.53333333 109.451515,2.76363636 C109.163636,2.99393939 108.760606,3.10909091 108.3,3.10909091 Z" id="Shape"/>
                            <path d="M120.966667,15.3151515 C120.275758,15.3151515 119.7,15.2 119.181818,14.9121212 C118.663636,14.6242424 118.260606,14.2212121 117.972727,13.7030303 C117.684848,13.1848485 117.512121,12.6090909 117.512121,11.9181818 L117.512121,3.56969697 L114.172727,3.56969697 L114.172727,1.43939394 L119.930303,1.43939394 L119.930303,11.9181818 C119.930303,12.3212121 120.045455,12.6090909 120.275758,12.8393939 C120.506061,13.069697 120.793939,13.1848485 121.19697,13.1848485 L124.363636,13.1848485 L124.363636,15.3151515 L120.966667,15.3151515 L120.966667,15.3151515 Z" id="Path"/>
                            <path d="M126.493939,15.3151515 L126.493939,13.1272727 L130.121212,13.1272727 L130.121212,7.02424242 L126.954545,7.02424242 L126.954545,4.89393939 L132.424242,4.89393939 L132.424242,13.1848485 L135.648485,13.1848485 L135.648485,15.3727273 L126.493939,15.3727273 L126.493939,15.3151515 Z M131.1,3.10909091 C130.639394,3.10909091 130.236364,2.99393939 129.948485,2.76363636 C129.660606,2.53333333 129.545455,2.18787879 129.545455,1.78484848 C129.545455,1.38181818 129.660606,1.03636364 129.948485,0.806060606 C130.236364,0.575757576 130.639394,0.460606061 131.1,0.460606061 C131.560606,0.460606061 131.963636,0.575757576 132.251515,0.806060606 C132.539394,1.03636364 132.654545,1.38181818 132.654545,1.78484848 C132.654545,2.18787879 132.539394,2.53333333 132.251515,2.76363636 C131.963636,2.99393939 131.618182,3.10909091 131.1,3.10909091 Z" id="Shape"/>
                            <path d="M143.363636,15.3151515 C142.384848,15.3151515 141.578788,15.0272727 141.00303,14.4515152 C140.427273,13.8757576 140.139394,13.1272727 140.139394,12.1484848 L140.139394,6.96666667 L137.318182,6.96666667 L137.318182,4.83636364 L140.139394,4.83636364 L140.139394,1.9 L142.557576,1.9 L142.557576,4.83636364 L146.587879,4.83636364 L146.587879,6.96666667 L142.557576,6.96666667 L142.557576,12.1484848 C142.557576,12.8393939 142.90303,13.1272727 143.536364,13.1272727 L146.415152,13.1272727 L146.415152,15.2575758 L143.363636,15.2575758 L143.363636,15.3151515 Z" id="Path"/>
                            <path d="M151.078788,18.769697 L152.518182,14.7969697 L148.60303,4.89393939 L151.193939,4.89393939 L153.151515,10.2484848 C153.266667,10.5363636 153.324242,10.8818182 153.439394,11.2848485 C153.554545,11.6878788 153.612121,12.0333333 153.669697,12.3212121 C153.727273,12.0333333 153.784848,11.7454545 153.9,11.2848485 C154.015152,10.8242424 154.072727,10.5363636 154.187879,10.2484848 L156.030303,4.89393939 L158.563636,4.89393939 L153.49697,18.769697 L151.078788,18.769697 L151.078788,18.769697 Z" id="Path"/>
                        </g>
                        <g transform="translate(0.575758, 39.727273)">
                            <path d="M4.66363636,15.0848485 C3.8,15.0848485 2.99393939,14.9121212 2.36060606,14.5666667 C1.66969697,14.2212121 1.20909091,13.7606061 0.806060606,13.1272727 C0.403030303,12.4939394 0.287878788,11.8030303 0.287878788,10.9393939 L0.287878788,4.89393939 C0.287878788,4.03030303 0.460606061,3.33939394 0.806060606,2.70606061 C1.15151515,2.07272727 1.66969697,1.61212121 2.36060606,1.26666667 C3.05151515,0.921212121 3.8,0.748484848 4.66363636,0.748484848 C5.52727273,0.748484848 6.33333333,0.921212121 6.96666667,1.26666667 C7.6,1.61212121 8.11818182,2.07272727 8.52121212,2.70606061 C8.86666667,3.33939394 9.0969697,4.03030303 9.0969697,4.89393939 L6.67878788,4.89393939 C6.67878788,4.2030303 6.50606061,3.74242424 6.16060606,3.3969697 C5.81515152,3.05151515 5.2969697,2.87878788 4.66363636,2.87878788 C4.03030303,2.87878788 3.51212121,3.05151515 3.16666667,3.3969697 C2.82121212,3.74242424 2.64848485,4.2030303 2.64848485,4.89393939 L2.64848485,10.9393939 C2.64848485,11.5727273 2.82121212,12.0909091 3.16666667,12.4363636 C3.51212121,12.7818182 4.03030303,12.9545455 4.66363636,12.9545455 C5.2969697,12.9545455 5.81515152,12.7818182 6.16060606,12.4363636 C6.50606061,12.0909091 6.67878788,11.5727273 6.67878788,10.9393939 L9.0969697,10.9393939 C9.0969697,11.7454545 8.92424242,12.4939394 8.52121212,13.1272727 C8.17575758,13.7606061 7.65757576,14.2212121 6.96666667,14.5666667 C6.33333333,14.9121212 5.52727273,15.0848485 4.66363636,15.0848485 L4.66363636,15.0848485 Z" id="Path"/>
                            <path d="M16.0060606,15.0272727 C15.1424242,15.0272727 14.3363636,14.8545455 13.7030303,14.5090909 C13.069697,14.1636364 12.5515152,13.7030303 12.2060606,13.069697 C11.8606061,12.4363636 11.6878788,11.7454545 11.6878788,10.8818182 L11.6878788,8.29090909 C11.6878788,7.48484848 11.8606061,6.73636364 12.2060606,6.1030303 C12.5515152,5.46969697 13.069697,5.00909091 13.7030303,4.66363636 C14.3363636,4.31818182 15.1424242,4.14545455 16.0060606,4.14545455 C16.869697,4.14545455 17.6757576,4.31818182 18.3090909,4.66363636 C18.9424242,5.00909091 19.4606061,5.46969697 19.8060606,6.1030303 C20.1515152,6.73636364 20.3242424,7.42727273 20.3242424,8.29090909 L20.3242424,10.9393939 C20.3242424,11.7454545 20.1515152,12.4939394 19.8060606,13.1272727 C19.4606061,13.7606061 18.9424242,14.2212121 18.3090909,14.5666667 C17.6757576,14.8545455 16.869697,15.0272727 16.0060606,15.0272727 L16.0060606,15.0272727 Z M16.0060606,12.9545455 C16.6393939,12.9545455 17.1575758,12.7818182 17.5030303,12.4363636 C17.8484848,12.0909091 18.0212121,11.5727273 18.0212121,10.9393939 L18.0212121,8.34848485 C18.0212121,7.65757576 17.8484848,7.13939394 17.5030303,6.85151515 C17.1575758,6.50606061 16.6393939,6.33333333 16.0060606,6.33333333 C15.3727273,6.33333333 14.9121212,6.50606061 14.5666667,6.85151515 C14.2212121,7.1969697 14.0484848,7.71515152 14.0484848,8.34848485 L14.0484848,10.9393939 C14.0484848,11.630303 14.2212121,12.0909091 14.5666667,12.4363636 C14.9121212,12.7818182 15.3727273,12.9545455 16.0060606,12.9545455 Z" id="Shape"/>
                            <path d="M23.1454545,14.8545455 L23.1454545,4.43333333 L25.4484848,4.43333333 L25.4484848,6.44848485 L26.0818182,6.44848485 L25.4484848,7.02424242 C25.4484848,6.16060606 25.6787879,5.46969697 26.1969697,5.00909091 C26.7151515,4.54848485 27.4060606,4.26060606 28.269697,4.26060606 C29.3060606,4.26060606 30.1121212,4.60606061 30.7454545,5.2969697 C31.3787879,5.98787879 31.6666667,6.90909091 31.6666667,8.06060606 L31.6666667,14.9121212 L29.3060606,14.9121212 L29.3060606,8.23333333 C29.3060606,7.6 29.1333333,7.13939394 28.7878788,6.73636364 C28.4424242,6.39090909 27.9818182,6.21818182 27.4060606,6.21818182 C26.830303,6.21818182 26.369697,6.39090909 26.0242424,6.73636364 C25.6787879,7.08181818 25.5060606,7.6 25.5060606,8.29090909 L25.5060606,14.8545455 L23.1454545,14.8545455 L23.1454545,14.8545455 Z" id="Path"/>
                            <path d="M38.4606061,15.0272727 C37.6545455,15.0272727 36.9636364,14.9121212 36.3878788,14.6242424 C35.8121212,14.3363636 35.2939394,13.9909091 35.0060606,13.5878788 C34.7181818,13.1848485 34.4878788,12.6090909 34.4878788,11.9757576 L36.8484848,11.9757576 C36.8484848,12.3212121 37.0212121,12.5515152 37.3090909,12.7818182 C37.5969697,12.9545455 38,13.069697 38.4606061,13.069697 L39.3242424,13.069697 C39.9,13.069697 40.3606061,12.9545455 40.6484848,12.7242424 C40.9363636,12.4939394 41.1090909,12.2060606 41.1090909,11.8030303 C41.1090909,11.4575758 40.9939394,11.169697 40.7060606,10.9393939 C40.4181818,10.7090909 40.0727273,10.5939394 39.4969697,10.5363636 L38.230303,10.3636364 C37.0212121,10.1909091 36.1575758,9.9030303 35.5818182,9.38484848 C35.0060606,8.86666667 34.7181818,8.23333333 34.7181818,7.25454545 C34.7181818,6.27575758 35.0636364,5.52727273 35.6969697,5.00909091 C36.330303,4.49090909 37.3090909,4.2030303 38.6333333,4.2030303 L39.3818182,4.2030303 C40.5333333,4.2030303 41.4545455,4.43333333 42.2030303,5.00909091 C42.8939394,5.52727273 43.2969697,6.21818182 43.3545455,7.08181818 L40.9939394,7.08181818 C40.9363636,6.79393939 40.8212121,6.56363636 40.5333333,6.39090909 C40.2454545,6.21818182 39.9,6.1030303 39.4393939,6.1030303 L38.5757576,6.1030303 C38,6.1030303 37.6545455,6.21818182 37.3666667,6.39090909 C37.0787879,6.56363636 37.0212121,6.85151515 37.0212121,7.25454545 C37.0212121,7.6 37.1363636,7.88787879 37.3666667,8.06060606 C37.5969697,8.23333333 37.9424242,8.34848485 38.4030303,8.40606061 L39.7848485,8.57878788 C41.0515152,8.75151515 41.9727273,9.0969697 42.5484848,9.55757576 C43.1242424,10.0181818 43.4121212,10.7666667 43.4121212,11.7454545 C43.4121212,12.7818182 43.0666667,13.530303 42.3757576,14.1060606 C41.6848485,14.6818182 40.6484848,14.969697 39.3242424,14.969697 L38.4606061,15.0272727 L38.4606061,15.0272727 Z" id="Path"/>
                            <path d="M50.2636364,15.0272727 C49.4,15.0272727 48.5939394,14.8545455 47.9606061,14.5090909 C47.3272727,14.1636364 46.8090909,13.7030303 46.4636364,13.069697 C46.1181818,12.4363636 45.9454545,11.7454545 45.9454545,10.8818182 L45.9454545,8.29090909 C45.9454545,7.48484848 46.1181818,6.73636364 46.4636364,6.1030303 C46.8090909,5.46969697 47.3272727,5.00909091 47.9606061,4.66363636 C48.5939394,4.31818182 49.4,4.14545455 50.2636364,4.14545455 C51.1272727,4.14545455 51.9333333,4.31818182 52.5666667,4.66363636 C53.2,5.00909091 53.7181818,5.46969697 54.0636364,6.1030303 C54.4090909,6.73636364 54.5818182,7.42727273 54.5818182,8.29090909 L54.5818182,10.9393939 C54.5818182,11.7454545 54.4090909,12.4939394 54.0636364,13.1272727 C53.7181818,13.7606061 53.2,14.2212121 52.5666667,14.5666667 C51.9333333,14.8545455 51.1848485,15.0272727 50.2636364,15.0272727 L50.2636364,15.0272727 Z M50.2636364,12.9545455 C50.8969697,12.9545455 51.4151515,12.7818182 51.7606061,12.4363636 C52.1060606,12.0909091 52.2787879,11.5727273 52.2787879,10.9393939 L52.2787879,8.34848485 C52.2787879,7.65757576 52.1060606,7.13939394 51.7606061,6.85151515 C51.4151515,6.50606061 50.8969697,6.33333333 50.2636364,6.33333333 C49.630303,6.33333333 49.169697,6.50606061 48.8242424,6.85151515 C48.4787879,7.1969697 48.3060606,7.71515152 48.3060606,8.34848485 L48.3060606,10.9393939 C48.3060606,11.630303 48.4787879,12.0909091 48.8242424,12.4363636 C49.169697,12.7818182 49.630303,12.9545455 50.2636364,12.9545455 Z" id="Shape"/>
                            <path d="M57.7484848,14.8545455 L57.7484848,4.43333333 L59.9939394,4.43333333 L59.9939394,6.44848485 L60.569697,6.44848485 L59.8787879,7.65757576 C59.8787879,6.50606061 60.1090909,5.7 60.6272727,5.12424242 C61.1454545,4.54848485 61.8939394,4.26060606 62.8727273,4.26060606 C64.0242424,4.26060606 64.8878788,4.60606061 65.5212121,5.2969697 C66.1545455,5.98787879 66.5,6.96666667 66.5,8.17575758 L66.5,8.92424242 L64.0242424,8.92424242 L64.0242424,8.34848485 C64.0242424,7.65757576 63.8515152,7.13939394 63.5060606,6.79393939 C63.1606061,6.44848485 62.7,6.21818182 62.0666667,6.21818182 C61.4333333,6.21818182 60.9727273,6.39090909 60.6272727,6.79393939 C60.2818182,7.13939394 60.1090909,7.65757576 60.1090909,8.34848485 L60.1090909,14.9121212 L57.7484848,14.8545455 L57.7484848,14.8545455 Z" id="Path"/>
                            <path d="M74.2151515,14.8545455 C73.2363636,14.8545455 72.430303,14.5666667 71.8545455,13.9909091 C71.2787879,13.4151515 70.9909091,12.6666667 70.9909091,11.6878788 L70.9909091,6.50606061 L68.169697,6.50606061 L68.169697,4.37575758 L70.9909091,4.37575758 L70.9909091,1.43939394 L73.4090909,1.43939394 L73.4090909,4.37575758 L77.4393939,4.37575758 L77.4393939,6.50606061 L73.4090909,6.50606061 L73.4090909,11.6878788 C73.4090909,12.3787879 73.7545455,12.6666667 74.3878788,12.6666667 L77.2666667,12.6666667 L77.2666667,14.7969697 L74.2151515,14.7969697 L74.2151515,14.8545455 Z" id="Path"/>
                            <path d="M80.2606061,14.8545455 L80.2606061,12.6666667 L83.9454545,12.6666667 L83.9454545,6.56363636 L80.7787879,6.56363636 L80.7787879,4.43333333 L86.2484848,4.43333333 L86.2484848,12.7242424 L89.4727273,12.7242424 L89.4727273,14.9121212 L80.2606061,14.9121212 L80.2606061,14.8545455 Z M84.8666667,2.64848485 C84.4060606,2.64848485 84.0030303,2.53333333 83.7151515,2.3030303 C83.4272727,2.07272727 83.3121212,1.72727273 83.3121212,1.32424242 C83.3121212,0.921212121 83.4272727,0.575757576 83.7151515,0.345454545 C84.0030303,0.115151515 84.3484848,0 84.8666667,0 C85.3848485,0 85.730303,0.115151515 86.0181818,0.345454545 C86.3060606,0.575757576 86.4212121,0.921212121 86.4212121,1.32424242 C86.4212121,1.72727273 86.3060606,2.07272727 86.0181818,2.3030303 C85.730303,2.53333333 85.3272727,2.64848485 84.8666667,2.64848485 Z" id="Shape"/>
                            <path d="M95.9212121,15.0848485 C94.5969697,15.0848485 93.5606061,14.6818182 92.7545455,13.9909091 C92.0060606,13.2424242 91.6030303,12.2060606 91.6030303,10.9393939 L91.6030303,4.43333333 L93.9636364,4.43333333 L93.9636364,10.9393939 C93.9636364,11.630303 94.1363636,12.1484848 94.4818182,12.4939394 C94.8272727,12.8393939 95.2878788,13.0121212 95.9212121,13.0121212 C96.5545455,13.0121212 96.9575758,12.8393939 97.3030303,12.4939394 C97.6484848,12.1484848 97.8212121,11.630303 97.8212121,10.9393939 L97.8212121,4.43333333 L100.181818,4.43333333 L100.181818,10.9393939 C100.181818,12.2060606 99.7787879,13.2424242 99.030303,13.9909091 C98.2818182,14.7393939 97.2454545,15.0848485 95.9212121,15.0848485 L95.9212121,15.0848485 Z" id="Path"/>
                        </g>
                        <path d="M103.348485,54.5818182 L103.348485,44.1606061 L105.306061,44.1606061 L105.306061,45.5424242 L105.709091,45.5424242 L105.363636,45.8878788 C105.363636,45.3121212 105.536364,44.8515152 105.881818,44.5060606 C106.227273,44.1606061 106.630303,43.9878788 107.148485,43.9878788 C107.724242,43.9878788 108.127273,44.2181818 108.472727,44.6787879 C108.760606,45.1393939 108.933333,45.7727273 108.933333,46.5212121 L108.530303,45.6 L109.163636,45.6 L108.933333,45.9454545 C108.933333,45.369697 109.106061,44.9090909 109.451515,44.5636364 C109.79697,44.2181818 110.2,44.0454545 110.775758,44.0454545 C111.409091,44.0454545 111.927273,44.2757576 112.330303,44.7939394 C112.733333,45.2545455 112.906061,45.9454545 112.906061,46.7515152 L112.906061,54.6969697 L110.833333,54.6969697 L110.833333,46.6939394 C110.833333,46.3484848 110.775758,46.0606061 110.60303,45.8878788 C110.430303,45.7151515 110.2,45.6 109.912121,45.6 C109.624242,45.6 109.393939,45.7151515 109.278788,45.8878788 C109.106061,46.0606061 109.048485,46.3484848 109.048485,46.6939394 L109.048485,54.5818182 L107.321212,54.5818182 L107.321212,46.6939394 C107.321212,46.3484848 107.263636,46.0606061 107.090909,45.8878788 C106.918182,45.7151515 106.687879,45.6 106.4,45.6 C106.112121,45.6 105.881818,45.7151515 105.766667,45.8878788 C105.651515,46.0606061 105.536364,46.3484848 105.536364,46.6939394 L105.536364,54.5818182 L103.348485,54.5818182 L103.348485,54.5818182 Z" id="Path"/>
                    </g>
                    <path d="M92.6969697,59.8212121 L89.8181818,34.1424242 C89.2424242,28.6727273 88.4939394,20.9 87.9757576,16.2939394 L87.6878788,16.2939394 C87.7454545,19.5181818 87.9757576,23.4909091 87.9757576,26.7151515 L87.9757576,59.8212121 L81.0090909,59.8212121 L81.0090909,6.50606061 L92.7545455,6.50606061 L95.2878788,28.5 C95.7484848,31.7818182 96.4969697,38.4030303 96.5545455,45.1393939 L96.9,45.1393939 C97.130303,39.6121212 97.1878788,32.8757576 97.6484848,28.6151515 L99.8363636,6.50606061 L111.581818,6.50606061 L111.581818,59.8212121 L104.615152,59.8212121 L104.615152,35.2363636 C104.615152,28.9606061 104.672727,23.030303 104.90303,16.2939394 L104.615152,16.2939394 C104.154545,20.2666667 102.945455,33.969697 102.657576,36.7909091 L99.8939394,59.7636364 L92.6969697,59.8212121 L92.6969697,59.8212121 Z" id="Path" fill="#1D5B46"/>
                    <path d="M128.163636,25.9666667 L128.163636,15.0848485 C128.163636,12.3787879 127.357576,11.8030303 125.745455,11.8030303 C124.133333,11.8030303 123.269697,12.3787879 123.269697,15.0848485 L123.269697,51.1848485 C123.269697,53.8909091 124.075758,54.4666667 125.745455,54.4666667 C127.415152,54.4666667 128.163636,53.8909091 128.163636,51.1848485 L128.163636,39.669697 L136.109091,39.669697 L136.109091,51.8757576 C136.109091,58.8424242 130.639394,60.8575758 125.687879,60.8575758 C120.736364,60.8575758 115.381818,58.8424242 115.381818,51.8757576 L115.381818,14.4515152 C115.381818,7.48484848 120.851515,5.46969697 125.687879,5.46969697 C130.524242,5.46969697 136.109091,7.48484848 136.109091,14.4515152 L136.109091,25.9666667 L128.163636,25.9666667 L128.163636,25.9666667 Z" id="Path" fill="#00ADEE"/>
                    <path d="M147.393939,51.1848485 C147.393939,53.8909091 148.2,54.4666667 149.869697,54.4666667 C151.539394,54.4666667 152.287879,53.8909091 152.287879,51.1848485 L152.287879,45.5424242 C152.287879,38.0575758 139.506061,30.6878788 139.506061,22.0515152 L139.506061,14.4515152 C139.506061,7.48484848 144.975758,5.46969697 149.812121,5.46969697 C154.648485,5.46969697 160.233333,7.48484848 160.233333,14.4515152 L160.233333,25.6787879 L152.287879,25.6787879 L152.287879,15.0848485 C152.287879,12.3787879 151.481818,11.8030303 149.869697,11.8030303 C148.257576,11.8030303 147.393939,12.3787879 147.393939,15.0848485 L147.393939,21.6484848 C147.393939,25.4484848 160.175758,37.0212121 160.175758,42.3757576 L160.175758,51.8181818 C160.175758,58.7848485 154.706061,60.8 149.754545,60.8 C144.80303,60.8 139.448485,58.7848485 139.448485,51.8181818 L139.448485,39.5545455 L147.393939,39.5545455 L147.393939,51.1848485 L147.393939,51.1848485 Z" id="Path" fill="#71BE44"/>
                    <path d="M176.412121,25.9666667 L176.412121,15.0848485 C176.412121,12.3787879 175.606061,11.8030303 173.993939,11.8030303 C172.381818,11.8030303 171.518182,12.3787879 171.518182,15.0848485 L171.518182,51.1848485 C171.518182,53.8909091 172.324242,54.4666667 173.993939,54.4666667 C175.663636,54.4666667 176.412121,53.8909091 176.412121,51.1848485 L176.412121,39.669697 L184.357576,39.669697 L184.357576,51.8757576 C184.357576,58.8424242 178.887879,60.8575758 173.936364,60.8575758 C168.984848,60.8575758 163.630303,58.8424242 163.630303,51.8757576 L163.630303,14.4515152 C163.630303,7.48484848 169.1,5.46969697 173.936364,5.46969697 C178.772727,5.46969697 184.357576,7.48484848 184.357576,14.4515152 L184.357576,25.9666667 L176.412121,25.9666667 L176.412121,25.9666667 Z" id="Path" fill="#FAAE17"/>
                    <g id="Group" transform="translate(13.818182, 0.000000)" fill="#00ADEE">
                        <path d="M53.6606061,37.6545455 L3.85757576,37.6545455 C2.87878788,37.6545455 2.13030303,38.4030303 2.13030303,39.3818182 C2.13030303,40.3606061 2.93636364,41.1090909 3.85757576,41.1090909 L53.6606061,41.1090909 C54.6393939,41.1090909 55.3878788,40.3606061 55.3878788,39.3818182 C55.3878788,38.4030303 54.6393939,37.6545455 53.6606061,37.6545455 Z" id="Path"/>
                        <path d="M51.8757576,18.8272727 L2.07272727,18.8272727 C1.09393939,18.8272727 0.345454545,19.5757576 0.345454545,20.5545455 C0.345454545,21.5333333 1.15151515,22.2818182 2.07272727,22.2818182 L51.8757576,22.2818182 C52.8545455,22.2818182 53.6030303,21.5333333 53.6030303,20.5545455 C53.6030303,19.5757576 52.8545455,18.8272727 51.8757576,18.8272727 Z" id="Path"/>
                        <path d="M42.8363636,6.27575758 L16.9848485,6.27575758 C16.0060606,6.27575758 15.2575758,7.08181818 15.2575758,8.0030303 C15.2575758,8.92424242 16.0060606,9.73030303 16.9848485,9.73030303 L42.8363636,9.73030303 C43.8151515,9.73030303 44.5636364,8.92424242 44.5636364,8.0030303 C44.5636364,7.08181818 43.8151515,6.27575758 42.8363636,6.27575758 L42.8363636,6.27575758 Z" id="Path"/>
                        <path d="M53.6606061,25.1030303 L8.98181818,25.1030303 C8.0030303,25.1030303 7.25454545,25.8515152 7.25454545,26.830303 C7.25454545,27.8090909 8.0030303,28.5575758 8.98181818,28.5575758 L53.6606061,28.5575758 C54.6393939,28.5575758 55.3878788,27.8090909 55.3878788,26.830303 C55.3878788,25.8515152 54.6393939,25.1030303 53.6606061,25.1030303 Z" id="Path"/>
                        <path d="M48.4787879,50.2060606 L21.130303,50.2060606 C20.1515152,50.2060606 19.4030303,50.9545455 19.4030303,51.9333333 C19.4030303,52.9121212 20.1515152,53.6606061 21.130303,53.6606061 L48.4212121,53.6606061 C49.4,53.6606061 50.1484848,52.9121212 50.1484848,51.9333333 C50.1484848,50.9545455 49.4,50.2060606 48.4787879,50.2060606 Z" id="Path"/>
                        <path d="M31.7242424,0 L24.469697,0 C23.4909091,0 22.7424242,0.806060606 22.7424242,1.72727273 C22.7424242,2.64848485 23.5484848,3.45454545 24.469697,3.45454545 L31.7242424,3.45454545 C32.7030303,3.45454545 33.4515152,2.70606061 33.4515152,1.72727273 C33.4515152,0.748484848 32.7030303,0 31.7242424,0 Z" id="Path"/>
                        <path d="M31.7242424,62.7 L21.2454545,62.7 C20.2666667,62.7 19.5181818,63.4484848 19.5181818,64.4272727 C19.5181818,65.4060606 20.2666667,66.1545455 21.2454545,66.1545455 L31.7242424,66.1545455 C32.7030303,66.1545455 33.4515152,65.4060606 33.4515152,64.4272727 C33.4515152,63.4484848 32.7030303,62.7 31.7242424,62.7 Z" id="Path"/>
                        <path d="M48.4787879,12.5515152 L28.3272727,12.5515152 C27.3484848,12.5515152 26.6,13.3575758 26.6,14.2787879 C26.6,15.2 27.3484848,16.0060606 28.3272727,16.0060606 L48.4787879,16.0060606 C49.4575758,16.0060606 50.2060606,15.2 50.2060606,14.2787879 C50.2060606,13.3575758 49.4,12.5515152 48.4787879,12.5515152 Z" id="Path"/>
                        <path d="M51.8757576,43.930303 L12.9545455,43.930303 C11.9757576,43.930303 11.2272727,44.6787879 11.2272727,45.6575758 C11.2272727,46.6363636 11.9757576,47.3848485 12.9545455,47.3848485 L51.8757576,47.3848485 C52.8545455,47.3848485 53.6030303,46.6363636 53.6030303,45.6575758 C53.6030303,44.6787879 52.8545455,43.930303 51.8757576,43.930303 Z" id="Path"/>
                        <path d="M54.3515152,31.3787879 L15.3727273,31.3787879 C14.3939394,31.3787879 13.6454545,32.1272727 13.6454545,33.1060606 C13.6454545,34.0848485 14.3939394,34.8333333 15.3727273,34.8333333 L54.3515152,34.8333333 C55.330303,34.8333333 56.0787879,34.0848485 56.0787879,33.1060606 C56.0787879,32.1272727 55.2727273,31.3787879 54.3515152,31.3787879 Z" id="Path"/>
                        <path d="M42.8363636,56.4242424 L8.98181818,56.4242424 C8.0030303,56.4242424 7.25454545,57.1727273 7.25454545,58.1515152 C7.25454545,59.130303 8.0030303,59.8787879 8.98181818,59.8787879 L42.8363636,59.8787879 C43.8151515,59.8787879 44.5636364,59.130303 44.5636364,58.1515152 C44.5636364,57.1727273 43.8151515,56.4242424 42.8363636,56.4242424 Z" id="Path"/>
                    </g>
                    <g id="Group" fill="#FAAE17">
                        <path d="M29.4787879,50.2060606 L7.6,50.2060606 C6.62121212,50.2060606 5.87272727,50.9545455 5.87272727,51.9333333 C5.87272727,52.9121212 6.67878788,53.6606061 7.6,53.6606061 L29.4787879,53.6606061 C30.4575758,53.6606061 31.2060606,52.9121212 31.2060606,51.9333333 C31.2060606,50.9545455 30.4575758,50.2060606 29.4787879,50.2060606 Z" id="Path"/>
                        <path d="M33.9121212,37.6545455 L2.36060606,37.6545455 C1.38181818,37.6545455 0.633333333,38.4030303 0.633333333,39.3818182 C0.633333333,40.3606061 1.43939394,41.1090909 2.36060606,41.1090909 L33.9121212,41.1090909 C34.8909091,41.1090909 35.6393939,40.3606061 35.6393939,39.3818182 C35.6393939,38.4030303 34.8909091,37.6545455 33.9121212,37.6545455 Z" id="Path"/>
                        <path d="M36.9636364,18.8272727 L4.2030303,18.8272727 C3.22424242,18.8272727 2.47575758,19.5757576 2.47575758,20.5545455 C2.47575758,21.5333333 3.22424242,22.2818182 4.2030303,22.2818182 L36.9636364,22.2818182 C37.9424242,22.2818182 38.6909091,21.5333333 38.6909091,20.5545455 C38.6909091,19.5757576 37.8848485,18.8272727 36.9636364,18.8272727 Z" id="Path"/>
                        <path d="M36.6181818,12.5515152 L7.6,12.5515152 C6.62121212,12.5515152 5.87272727,13.3575758 5.87272727,14.2787879 C5.87272727,15.2 6.67878788,16.0060606 7.6,16.0060606 L36.6181818,16.0060606 C37.5969697,16.0060606 38.3454545,15.2 38.3454545,14.2787879 C38.3454545,13.3575758 37.5969697,12.5515152 36.6181818,12.5515152 Z" id="Path"/>
                        <path d="M17.330303,25.1030303 L2.36060606,25.1030303 C1.38181818,25.1030303 0.633333333,25.8515152 0.633333333,26.830303 C0.633333333,27.8090909 1.43939394,28.5575758 2.36060606,28.5575758 L17.330303,28.5575758 C18.3090909,28.5575758 19.0575758,27.8090909 19.0575758,26.830303 C19.0575758,25.8515152 18.3090909,25.1030303 17.330303,25.1030303 Z" id="Path"/>
                        <path d="M32.8181818,0 L24.3545455,0 C23.3757576,0 22.6272727,0.806060606 22.6272727,1.72727273 C22.6272727,2.64848485 23.3757576,3.45454545 24.3545455,3.45454545 L32.8181818,3.45454545 C33.7969697,3.45454545 34.5454545,2.70606061 34.5454545,1.72727273 C34.5454545,0.748484848 33.7969697,0 32.8181818,0 Z" id="Path"/>
                        <path d="M29.5939394,62.7 L24.3545455,62.7 C23.3757576,62.7 22.6272727,63.4484848 22.6272727,64.4272727 C22.6272727,65.4060606 23.3757576,66.1545455 24.3545455,66.1545455 L29.5939394,66.1545455 C30.5727273,66.1545455 31.3212121,65.4060606 31.3212121,64.4272727 C31.3212121,63.4484848 30.5151515,62.7 29.5939394,62.7 Z" id="Path"/>
                        <path d="M44.7939394,6.27575758 L13.2424242,6.27575758 C12.2636364,6.27575758 11.5151515,7.08181818 11.5151515,8.0030303 C11.5151515,8.92424242 12.3212121,9.73030303 13.2424242,9.73030303 L44.8515152,9.73030303 C45.830303,9.73030303 46.5787879,8.92424242 46.5787879,8.0030303 C46.5787879,7.08181818 45.7727273,6.27575758 44.7939394,6.27575758 Z" id="Path"/>
                        <path d="M50.4363636,43.930303 L4.2030303,43.930303 C3.22424242,43.930303 2.47575758,44.6787879 2.47575758,45.6575758 C2.47575758,46.6363636 3.22424242,47.3848485 4.2030303,47.3848485 L50.4363636,47.3848485 C51.4151515,47.3848485 52.1636364,46.6363636 52.1636364,45.6575758 C52.1636364,44.6787879 51.4151515,43.930303 50.4363636,43.930303 Z" id="Path"/>
                        <path d="M36.330303,56.4242424 L13.2424242,56.4242424 C12.2636364,56.4242424 11.5151515,57.1727273 11.5151515,58.1515152 C11.5151515,59.130303 12.3212121,59.8787879 13.2424242,59.8787879 L36.330303,59.8787879 C37.3090909,59.8787879 38.0575758,59.130303 38.0575758,58.1515152 C38.0575758,57.1727273 37.3090909,56.4242424 36.330303,56.4242424 Z" id="Path"/>
                        <path d="M54.8121212,31.3787879 L1.72727273,31.3787879 C0.748484848,31.3787879 0,32.1272727 0,33.1060606 C0,34.0848485 0.806060606,34.8333333 1.72727273,34.8333333 L54.8121212,34.8333333 C55.7909091,34.8333333 56.5393939,34.0848485 56.5393939,33.1060606 C56.5393939,32.1272727 55.7909091,31.3787879 54.8121212,31.3787879 Z" id="Path"/>
                    </g>
                    <g id="Group" transform="translate(13.818182, 5.757576)" fill="#29735A">
                        <path d="M20.0939394,31.8969697 L3.85757576,31.8969697 C2.87878788,31.8969697 2.13030303,32.6454545 2.13030303,33.6242424 C2.13030303,34.6030303 2.93636364,35.3515152 3.85757576,35.3515152 L20.0939394,35.3515152 C21.0727273,35.3515152 21.8212121,34.6030303 21.8212121,33.6242424 C21.8212121,32.6454545 21.0727273,31.8969697 20.0939394,31.8969697 L20.0939394,31.8969697 Z" id="Path"/>
                        <path d="M30.9757576,0.518181818 L16.9848485,0.518181818 C16.0060606,0.518181818 15.2575758,1.32424242 15.2575758,2.24545455 C15.2575758,3.16666667 16.0060606,3.97272727 16.9848485,3.97272727 L30.9757576,3.97272727 C31.9545455,3.97272727 32.7030303,3.16666667 32.7030303,2.24545455 C32.7030303,1.32424242 31.9545455,0.518181818 30.9757576,0.518181818 Z" id="Path"/>
                        <path d="M23.1454545,13.069697 L2.07272727,13.069697 C1.09393939,13.069697 0.345454545,13.8181818 0.345454545,14.7969697 C0.345454545,15.7757576 1.15151515,16.5242424 2.07272727,16.5242424 L23.1454545,16.5242424 C24.1242424,16.5242424 24.8727273,15.7757576 24.8727273,14.7969697 C24.8727273,13.8181818 24.0666667,13.069697 23.1454545,13.069697 L23.1454545,13.069697 Z" id="Path"/>
                        <path d="M40.9939394,25.6212121 L15.3727273,25.6212121 C14.3939394,25.6212121 13.6454545,26.369697 13.6454545,27.3484848 C13.6454545,28.3272727 14.3939394,29.0757576 15.3727273,29.0757576 L40.9939394,29.0757576 C41.9727273,29.0757576 42.7212121,28.3272727 42.7212121,27.3484848 C42.7212121,26.369697 41.9727273,25.6212121 40.9939394,25.6212121 Z" id="Path"/>
                        <path d="M36.6181818,38.1727273 L12.9545455,38.1727273 C11.9757576,38.1727273 11.2272727,38.9212121 11.2272727,39.9 C11.2272727,40.8787879 11.9757576,41.6272727 12.9545455,41.6272727 L36.6181818,41.6272727 C37.5969697,41.6272727 38.3454545,40.8787879 38.3454545,39.9 C38.3454545,38.9212121 37.5969697,38.1727273 36.6181818,38.1727273 Z" id="Path"/>
                        <path d="M22.5121212,50.6666667 L8.98181818,50.6666667 C8.0030303,50.6666667 7.25454545,51.4151515 7.25454545,52.3939394 C7.25454545,53.3727273 8.0030303,54.1212121 8.98181818,54.1212121 L22.5121212,54.1212121 C23.4909091,54.1212121 24.2393939,53.3727273 24.2393939,52.3939394 C24.2393939,51.4151515 23.4909091,50.6666667 22.5121212,50.6666667 Z" id="Path"/>
                    </g>
                </g>
            </g>
        </g>
    </g>
</svg>
