<svg xmlns="http://www.w3.org/2000/svg" xml:space="preserve" width="512px" height="484px" version="1.0" style="shape-rendering:geometricPrecision; text-rendering:geometricPrecision; image-rendering:optimizeQuality; fill-rule:evenodd; clip-rule:evenodd"
viewBox="0 0 102.69 97.19"
 xmlns:xlink="http://www.w3.org/1999/xlink">
 <defs>
  <style type="text/css">
   <![CDATA[
    .fil0 {fill:#00ADEE}
    .fil2 {fill:#29735A}
    .fil1 {fill:#FAAE17}
   ]]>
  </style>
 </defs>
 <g id="Layer_x0020_1">
  <metadata id="CorelCorpID_0Corel-Layer"/>
  <g id="_2255467293760">
   <path id="Path" class="fil0" d="M99.13 55.32l-73.16 0c-1.44,0 -2.54,1.1 -2.54,2.54 0,1.43 1.18,2.53 2.54,2.53l73.16 0c1.44,0 2.54,-1.1 2.54,-2.53 0,-1.44 -1.1,-2.54 -2.54,-2.54z"/>
   <path id="Path_0" class="fil0" d="M96.51 27.66l-73.16 0c-1.44,0 -2.54,1.1 -2.54,2.54 0,1.43 1.18,2.53 2.54,2.53l73.16 0c1.44,0 2.54,-1.1 2.54,-2.53 0,-1.44 -1.1,-2.54 -2.54,-2.54z"/>
   <path id="Path_1" class="fil0" d="M83.23 9.22l-37.98 0c-1.43,0 -2.53,1.18 -2.53,2.54 0,1.35 1.1,2.53 2.53,2.53l37.98 0c1.44,0 2.54,-1.18 2.54,-2.53 0,-1.36 -1.1,-2.54 -2.54,-2.54l0 0z"/>
   <path id="Path_2" class="fil0" d="M99.13 36.88l-65.63 0c-1.44,0 -2.54,1.1 -2.54,2.54 0,1.43 1.1,2.53 2.54,2.53l65.63 0c1.44,0 2.54,-1.1 2.54,-2.53 0,-1.44 -1.1,-2.54 -2.54,-2.54z"/>
   <path id="Path_3" class="fil0" d="M91.52 73.76l-40.18 0c-1.43,0 -2.53,1.1 -2.53,2.54 0,1.43 1.1,2.53 2.53,2.53l40.1 0c1.43,0 2.53,-1.1 2.53,-2.53 0,-1.44 -1.1,-2.54 -2.45,-2.54z"/>
   <path id="Path_4" class="fil0" d="M66.91 0l-10.66 0c-1.44,0 -2.54,1.18 -2.54,2.54 0,1.35 1.19,2.53 2.54,2.53l10.66 0c1.44,0 2.53,-1.1 2.53,-2.53 0,-1.44 -1.09,-2.54 -2.53,-2.54z"/>
   <path id="Path_5" class="fil0" d="M66.91 92.11l-15.4 0c-1.44,0 -2.53,1.1 -2.53,2.54 0,1.44 1.09,2.54 2.53,2.54l15.4 0c1.44,0 2.53,-1.1 2.53,-2.54 0,-1.44 -1.09,-2.54 -2.53,-2.54z"/>
   <path id="Path_6" class="fil0" d="M91.52 18.44l-29.6 0c-1.44,0 -2.54,1.18 -2.54,2.54 0,1.35 1.1,2.53 2.54,2.53l29.6 0c1.44,0 2.54,-1.18 2.54,-2.53 0,-1.36 -1.19,-2.54 -2.54,-2.54z"/>
   <path id="Path_7" class="fil0" d="M96.51 64.54l-57.18 0c-1.44,0 -2.54,1.1 -2.54,2.54 0,1.43 1.1,2.53 2.54,2.53l57.18 0c1.44,0 2.54,-1.1 2.54,-2.53 0,-1.44 -1.1,-2.54 -2.54,-2.54z"/>
   <path id="Path_8" class="fil0" d="M100.15 46.1l-57.27 0c-1.43,0 -2.53,1.1 -2.53,2.54 0,1.43 1.1,2.53 2.53,2.53l57.27 0c1.44,0 2.54,-1.1 2.54,-2.53 0,-1.44 -1.19,-2.54 -2.54,-2.54z"/>
   <path id="Path_9" class="fil0" d="M83.23 82.89l-49.73 0c-1.44,0 -2.54,1.1 -2.54,2.54 0,1.44 1.1,2.54 2.54,2.54l49.73 0c1.44,0 2.54,-1.1 2.54,-2.54 0,-1.44 -1.1,-2.54 -2.54,-2.54z"/>
   <path id="Path_10" class="fil1" d="M43.31 73.76l-32.14 0c-1.44,0 -2.54,1.1 -2.54,2.54 0,1.43 1.18,2.53 2.54,2.53l32.14 0c1.44,0 2.54,-1.1 2.54,-2.53 0,-1.44 -1.1,-2.54 -2.54,-2.54z"/>
   <path id="Path_11" class="fil1" d="M49.82 55.32l-46.35 0c-1.44,0 -2.54,1.1 -2.54,2.54 0,1.43 1.19,2.53 2.54,2.53l46.35 0c1.44,0 2.54,-1.1 2.54,-2.53 0,-1.44 -1.1,-2.54 -2.54,-2.54z"/>
   <path id="Path_12" class="fil1" d="M54.3 27.66l-48.13 0c-1.43,0 -2.53,1.1 -2.53,2.54 0,1.43 1.1,2.53 2.53,2.53l48.13 0c1.44,0 2.54,-1.1 2.54,-2.53 0,-1.44 -1.18,-2.54 -2.54,-2.54z"/>
   <path id="Path_13" class="fil1" d="M53.8 18.44l-42.63 0c-1.44,0 -2.54,1.18 -2.54,2.54 0,1.35 1.18,2.53 2.54,2.53l42.63 0c1.43,0 2.53,-1.18 2.53,-2.53 0,-1.36 -1.1,-2.54 -2.53,-2.54z"/>
   <path id="Path_14" class="fil1" d="M25.46 36.88l-21.99 0c-1.44,0 -2.54,1.1 -2.54,2.54 0,1.43 1.19,2.53 2.54,2.53l21.99 0c1.44,0 2.54,-1.1 2.54,-2.53 0,-1.44 -1.1,-2.54 -2.54,-2.54z"/>
   <path id="Path_15" class="fil1" d="M48.21 0l-12.43 0c-1.44,0 -2.54,1.18 -2.54,2.54 0,1.35 1.1,2.53 2.54,2.53l12.43 0c1.44,0 2.54,-1.1 2.54,-2.53 0,-1.44 -1.1,-2.54 -2.54,-2.54z"/>
   <path id="Path_16" class="fil1" d="M43.48 92.11l-7.7 0c-1.44,0 -2.54,1.1 -2.54,2.54 0,1.44 1.1,2.54 2.54,2.54l7.7 0c1.44,0 2.53,-1.1 2.53,-2.54 0,-1.44 -1.18,-2.54 -2.53,-2.54z"/>
   <path id="Path_17" class="fil1" d="M65.81 9.22l-46.36 0c-1.43,0 -2.53,1.18 -2.53,2.54 0,1.35 1.18,2.53 2.53,2.53l46.44 0c1.44,0 2.54,-1.18 2.54,-2.53 0,-1.36 -1.18,-2.54 -2.62,-2.54z"/>
   <path id="Path_18" class="fil1" d="M74.1 64.54l-67.93 0c-1.43,0 -2.53,1.1 -2.53,2.54 0,1.43 1.1,2.53 2.53,2.53l67.93 0c1.43,0 2.53,-1.1 2.53,-2.53 0,-1.44 -1.1,-2.54 -2.53,-2.54z"/>
   <path id="Path_19" class="fil1" d="M53.37 82.89l-33.92 0c-1.43,0 -2.53,1.1 -2.53,2.54 0,1.44 1.18,2.54 2.53,2.54l33.92 0c1.44,0 2.54,-1.1 2.54,-2.54 0,-1.44 -1.1,-2.54 -2.54,-2.54z"/>
   <path id="Path_20" class="fil1" d="M80.53 46.1l-77.99 0c-1.44,0 -2.54,1.1 -2.54,2.54 0,1.43 1.18,2.53 2.54,2.53l77.99 0c1.43,0 2.53,-1.1 2.53,-2.53 0,-1.44 -1.1,-2.54 -2.53,-2.54z"/>
   <path id="Path_21" class="fil2" d="M49.82 55.32l-23.85 0c-1.44,0 -2.54,1.1 -2.54,2.54 0,1.43 1.18,2.53 2.54,2.53l23.85 0c1.44,0 2.54,-1.1 2.54,-2.53 0,-1.44 -1.1,-2.54 -2.54,-2.54l0 0z"/>
   <path id="Path_22" class="fil2" d="M65.81 9.22l-20.56 0c-1.43,0 -2.53,1.18 -2.53,2.54 0,1.35 1.1,2.53 2.53,2.53l20.56 0c1.44,0 2.54,-1.18 2.54,-2.53 0,-1.36 -1.1,-2.54 -2.54,-2.54z"/>
   <path id="Path_23" class="fil2" d="M54.3 27.66l-30.95 0c-1.44,0 -2.54,1.1 -2.54,2.54 0,1.43 1.18,2.53 2.54,2.53l30.95 0c1.44,0 2.54,-1.1 2.54,-2.53 0,-1.44 -1.18,-2.54 -2.54,-2.54l0 0z"/>
   <path id="Path_24" class="fil2" d="M80.53 46.1l-37.65 0c-1.43,0 -2.53,1.1 -2.53,2.54 0,1.43 1.1,2.53 2.53,2.53l37.65 0c1.43,0 2.53,-1.1 2.53,-2.53 0,-1.44 -1.1,-2.54 -2.53,-2.54z"/>
   <path id="Path_25" class="fil2" d="M74.1 64.54l-34.77 0c-1.44,0 -2.54,1.1 -2.54,2.54 0,1.43 1.1,2.53 2.54,2.53l34.77 0c1.43,0 2.53,-1.1 2.53,-2.53 0,-1.44 -1.1,-2.54 -2.53,-2.54z"/>
   <path id="Path_26" class="fil2" d="M53.37 82.89l-19.87 0c-1.44,0 -2.54,1.1 -2.54,2.54 0,1.44 1.1,2.54 2.54,2.54l19.87 0c1.44,0 2.54,-1.1 2.54,-2.54 0,-1.44 -1.1,-2.54 -2.54,-2.54z"/>
  </g>
 </g>
</svg>
